G04 #@! TF.GenerationSoftware,KiCad,Pcbnew,(5.1.8)-1*
G04 #@! TF.CreationDate,2020-11-23T14:14:14+01:00*
G04 #@! TF.ProjectId,MM1_FLASH_128k_A,4d4d315f-464c-4415-9348-5f3132386b5f,R1*
G04 #@! TF.SameCoordinates,PX6b49d20PY52f83c0*
G04 #@! TF.FileFunction,Legend,Top*
G04 #@! TF.FilePolarity,Positive*
%FSLAX46Y46*%
G04 Gerber Fmt 4.6, Leading zero omitted, Abs format (unit mm)*
G04 Created by KiCad (PCBNEW (5.1.8)-1) date 2020-11-23 14:14:14*
%MOMM*%
%LPD*%
G01*
G04 APERTURE LIST*
%ADD10C,0.150000*%
%ADD11C,0.300000*%
%ADD12C,0.120000*%
G04 APERTURE END LIST*
D10*
X1761904Y-23000000D02*
X1666666Y-22952380D01*
X1523809Y-22952380D01*
X1380952Y-23000000D01*
X1285714Y-23095238D01*
X1238095Y-23190476D01*
X1190476Y-23380952D01*
X1190476Y-23523809D01*
X1238095Y-23714285D01*
X1285714Y-23809523D01*
X1380952Y-23904761D01*
X1523809Y-23952380D01*
X1619047Y-23952380D01*
X1761904Y-23904761D01*
X1809523Y-23857142D01*
X1809523Y-23523809D01*
X1619047Y-23523809D01*
X2761904Y-23000000D02*
X2666666Y-22952380D01*
X2523809Y-22952380D01*
X2380952Y-23000000D01*
X2285714Y-23095238D01*
X2238095Y-23190476D01*
X2190476Y-23380952D01*
X2190476Y-23523809D01*
X2238095Y-23714285D01*
X2285714Y-23809523D01*
X2380952Y-23904761D01*
X2523809Y-23952380D01*
X2619047Y-23952380D01*
X2761904Y-23904761D01*
X2809523Y-23857142D01*
X2809523Y-23523809D01*
X2619047Y-23523809D01*
X48190476Y-952380D02*
X48761904Y-952380D01*
X48476190Y-1952380D02*
X48476190Y-952380D01*
X49285714Y-952380D02*
X49476190Y-952380D01*
X49571428Y-1000000D01*
X49666666Y-1095238D01*
X49714285Y-1285714D01*
X49714285Y-1619047D01*
X49666666Y-1809523D01*
X49571428Y-1904761D01*
X49476190Y-1952380D01*
X49285714Y-1952380D01*
X49190476Y-1904761D01*
X49095238Y-1809523D01*
X49047619Y-1619047D01*
X49047619Y-1285714D01*
X49095238Y-1095238D01*
X49190476Y-1000000D01*
X49285714Y-952380D01*
X50142857Y-1952380D02*
X50142857Y-952380D01*
X50523809Y-952380D01*
X50619047Y-1000000D01*
X50666666Y-1047619D01*
X50714285Y-1142857D01*
X50714285Y-1285714D01*
X50666666Y-1380952D01*
X50619047Y-1428571D01*
X50523809Y-1476190D01*
X50142857Y-1476190D01*
D11*
X1042857Y-3042857D02*
X1042857Y-1842857D01*
X1442857Y-2700000D01*
X1842857Y-1842857D01*
X1842857Y-3042857D01*
X2414285Y-3042857D02*
X2414285Y-1842857D01*
X2814285Y-2700000D01*
X3214285Y-1842857D01*
X3214285Y-3042857D01*
X4414285Y-3042857D02*
X3728571Y-3042857D01*
X4071428Y-3042857D02*
X4071428Y-1842857D01*
X3957142Y-2014285D01*
X3842857Y-2128571D01*
X3728571Y-2185714D01*
X4642857Y-3157142D02*
X5557142Y-3157142D01*
X6242857Y-2414285D02*
X5842857Y-2414285D01*
X5842857Y-3042857D02*
X5842857Y-1842857D01*
X6414285Y-1842857D01*
X7442857Y-3042857D02*
X6871428Y-3042857D01*
X6871428Y-1842857D01*
X7785714Y-2700000D02*
X8357142Y-2700000D01*
X7671428Y-3042857D02*
X8071428Y-1842857D01*
X8471428Y-3042857D01*
X8814285Y-2985714D02*
X8985714Y-3042857D01*
X9271428Y-3042857D01*
X9385714Y-2985714D01*
X9442857Y-2928571D01*
X9500000Y-2814285D01*
X9500000Y-2700000D01*
X9442857Y-2585714D01*
X9385714Y-2528571D01*
X9271428Y-2471428D01*
X9042857Y-2414285D01*
X8928571Y-2357142D01*
X8871428Y-2300000D01*
X8814285Y-2185714D01*
X8814285Y-2071428D01*
X8871428Y-1957142D01*
X8928571Y-1900000D01*
X9042857Y-1842857D01*
X9328571Y-1842857D01*
X9500000Y-1900000D01*
X10014285Y-3042857D02*
X10014285Y-1842857D01*
X10014285Y-2414285D02*
X10700000Y-2414285D01*
X10700000Y-3042857D02*
X10700000Y-1842857D01*
X10985714Y-3157142D02*
X11900000Y-3157142D01*
X12814285Y-3042857D02*
X12128571Y-3042857D01*
X12471428Y-3042857D02*
X12471428Y-1842857D01*
X12357142Y-2014285D01*
X12242857Y-2128571D01*
X12128571Y-2185714D01*
X13271428Y-1957142D02*
X13328571Y-1900000D01*
X13442857Y-1842857D01*
X13728571Y-1842857D01*
X13842857Y-1900000D01*
X13899999Y-1957142D01*
X13957142Y-2071428D01*
X13957142Y-2185714D01*
X13899999Y-2357142D01*
X13214285Y-3042857D01*
X13957142Y-3042857D01*
X14642857Y-2357142D02*
X14528571Y-2300000D01*
X14471428Y-2242857D01*
X14414285Y-2128571D01*
X14414285Y-2071428D01*
X14471428Y-1957142D01*
X14528571Y-1900000D01*
X14642857Y-1842857D01*
X14871428Y-1842857D01*
X14985714Y-1900000D01*
X15042857Y-1957142D01*
X15099999Y-2071428D01*
X15099999Y-2128571D01*
X15042857Y-2242857D01*
X14985714Y-2300000D01*
X14871428Y-2357142D01*
X14642857Y-2357142D01*
X14528571Y-2414285D01*
X14471428Y-2471428D01*
X14414285Y-2585714D01*
X14414285Y-2814285D01*
X14471428Y-2928571D01*
X14528571Y-2985714D01*
X14642857Y-3042857D01*
X14871428Y-3042857D01*
X14985714Y-2985714D01*
X15042857Y-2928571D01*
X15099999Y-2814285D01*
X15099999Y-2585714D01*
X15042857Y-2471428D01*
X14985714Y-2414285D01*
X14871428Y-2357142D01*
X15614285Y-3042857D02*
X15614285Y-1842857D01*
X15728571Y-2585714D02*
X16071428Y-3042857D01*
X16071428Y-2242857D02*
X15614285Y-2700000D01*
X16299999Y-3157142D02*
X17214285Y-3157142D01*
X17442857Y-2700000D02*
X18014285Y-2700000D01*
X17328571Y-3042857D02*
X17728571Y-1842857D01*
X18128571Y-3042857D01*
D12*
X12265000Y-16360936D02*
X12265000Y-16815064D01*
X13735000Y-16360936D02*
X13735000Y-16815064D01*
X19180000Y-2645000D02*
X19180000Y-10770000D01*
X39980000Y-2645000D02*
X19180000Y-2645000D01*
X39980000Y-20895000D02*
X39980000Y-2645000D01*
X20180000Y-20895000D02*
X39980000Y-20895000D01*
X19180000Y-19895000D02*
X20180000Y-20895000D01*
X19180000Y-12770000D02*
X19180000Y-19895000D01*
X11670000Y-14370000D02*
X14330000Y-14370000D01*
X11670000Y-11770000D02*
X11670000Y-14370000D01*
X14330000Y-11770000D02*
X14330000Y-14370000D01*
X11670000Y-11770000D02*
X14330000Y-11770000D01*
X11670000Y-10500000D02*
X11670000Y-9170000D01*
X11670000Y-9170000D02*
X13000000Y-9170000D01*
D10*
X43166666Y-22452380D02*
X43166666Y-23166666D01*
X43119047Y-23309523D01*
X43023809Y-23404761D01*
X42880952Y-23452380D01*
X42785714Y-23452380D01*
X44166666Y-23452380D02*
X43595238Y-23452380D01*
X43880952Y-23452380D02*
X43880952Y-22452380D01*
X43785714Y-22595238D01*
X43690476Y-22690476D01*
X43595238Y-22738095D01*
X15102380Y-16754666D02*
X14626190Y-17088000D01*
X15102380Y-17326095D02*
X14102380Y-17326095D01*
X14102380Y-16945142D01*
X14150000Y-16849904D01*
X14197619Y-16802285D01*
X14292857Y-16754666D01*
X14435714Y-16754666D01*
X14530952Y-16802285D01*
X14578571Y-16849904D01*
X14626190Y-16945142D01*
X14626190Y-17326095D01*
X15102380Y-15802285D02*
X15102380Y-16373714D01*
X15102380Y-16088000D02*
X14102380Y-16088000D01*
X14245238Y-16183238D01*
X14340476Y-16278476D01*
X14388095Y-16373714D01*
X17732380Y-12531904D02*
X18541904Y-12531904D01*
X18637142Y-12484285D01*
X18684761Y-12436666D01*
X18732380Y-12341428D01*
X18732380Y-12150952D01*
X18684761Y-12055714D01*
X18637142Y-12008095D01*
X18541904Y-11960476D01*
X17732380Y-11960476D01*
X18732380Y-10960476D02*
X18732380Y-11531904D01*
X18732380Y-11246190D02*
X17732380Y-11246190D01*
X17875238Y-11341428D01*
X17970476Y-11436666D01*
X18018095Y-11531904D01*
X12166666Y-7622380D02*
X12166666Y-8336666D01*
X12119047Y-8479523D01*
X12023809Y-8574761D01*
X11880952Y-8622380D01*
X11785714Y-8622380D01*
X12642857Y-8622380D02*
X12642857Y-7622380D01*
X13023809Y-7622380D01*
X13119047Y-7670000D01*
X13166666Y-7717619D01*
X13214285Y-7812857D01*
X13214285Y-7955714D01*
X13166666Y-8050952D01*
X13119047Y-8098571D01*
X13023809Y-8146190D01*
X12642857Y-8146190D01*
X14166666Y-8622380D02*
X13595238Y-8622380D01*
X13880952Y-8622380D02*
X13880952Y-7622380D01*
X13785714Y-7765238D01*
X13690476Y-7860476D01*
X13595238Y-7908095D01*
M02*
