M48
; DRILL file {KiCad (5.1.8)-1} date 11/23/20 14:14:25
; FORMAT={-:-/ absolute / metric / decimal}
; #@! TF.CreationDate,2020-11-23T14:14:25+01:00
; #@! TF.GenerationSoftware,Kicad,Pcbnew,(5.1.8)-1
; #@! TF.FileFunction,Plated,1,2,PTH
FMAT,2
METRIC
T1C0.200
T2C0.800
T3C1.000
%
G90
G05
T1
X11.867Y-17.5
X19.463Y-16.603
X19.928Y-15.958
X20.269Y-15.151
X20.395Y-18.601
X20.765Y-24.112
X22.206Y-25.537
X23.493Y-19.614
X24.04Y-25.86
X24.981Y-25.163
X33.698Y-19.909
X34.2Y-25.86
X34.317Y-21.066
X36.74Y-25.86
X39.28Y-25.86
X39.42Y-20.34
T2
X21.96Y-7.96
X21.96Y-10.5
X21.96Y-13.04
X21.96Y-15.58
X24.5Y-5.42
X24.5Y-7.96
X24.5Y-10.5
X24.5Y-13.04
X24.5Y-15.58
X24.5Y-18.12
X27.04Y-5.42
X27.04Y-7.96
X27.04Y-15.58
X27.04Y-18.12
X29.58Y-5.42
X29.58Y-7.96
X29.58Y-15.58
X29.58Y-18.12
X32.12Y-5.42
X32.12Y-7.96
X32.12Y-15.58
X32.12Y-18.12
X34.66Y-5.42
X34.66Y-7.96
X34.66Y-10.5
X34.66Y-13.04
X34.66Y-15.58
X34.66Y-18.12
X37.2Y-7.96
X37.2Y-10.5
X37.2Y-13.04
X37.2Y-15.58
T3
X13.0Y-10.5
X13.0Y-13.04
T0
M30
