G04 #@! TF.GenerationSoftware,KiCad,Pcbnew,(5.1.8)-1*
G04 #@! TF.CreationDate,2020-11-23T14:14:14+01:00*
G04 #@! TF.ProjectId,MM1_FLASH_128k_A,4d4d315f-464c-4415-9348-5f3132386b5f,R1*
G04 #@! TF.SameCoordinates,PX6b49d20PY52f83c0*
G04 #@! TF.FileFunction,Soldermask,Bot*
G04 #@! TF.FilePolarity,Negative*
%FSLAX46Y46*%
G04 Gerber Fmt 4.6, Leading zero omitted, Abs format (unit mm)*
G04 Created by KiCad (PCBNEW (5.1.8)-1) date 2020-11-23 14:14:14*
%MOMM*%
%LPD*%
G01*
G04 APERTURE LIST*
%ADD10R,1.700000X7.500000*%
%ADD11R,1.422400X1.422400*%
%ADD12C,1.422400*%
%ADD13R,1.700000X1.700000*%
%ADD14O,1.700000X1.700000*%
G04 APERTURE END LIST*
D10*
X7530000Y-29890000D03*
X10070000Y-29890000D03*
X12610000Y-29890000D03*
X15150000Y-29890000D03*
X17690000Y-29890000D03*
X20230000Y-29890000D03*
X22770000Y-29890000D03*
X25310000Y-29890000D03*
X27850000Y-29890000D03*
X30390000Y-29890000D03*
X32930000Y-29890000D03*
X35470000Y-29890000D03*
X38010000Y-29890000D03*
X40550000Y-29890000D03*
X43090000Y-29890000D03*
G36*
G01*
X7025000Y-21550000D02*
X7975000Y-21550000D01*
G75*
G02*
X8225000Y-21800000I0J-250000D01*
G01*
X8225000Y-22300000D01*
G75*
G02*
X7975000Y-22550000I-250000J0D01*
G01*
X7025000Y-22550000D01*
G75*
G02*
X6775000Y-22300000I0J250000D01*
G01*
X6775000Y-21800000D01*
G75*
G02*
X7025000Y-21550000I250000J0D01*
G01*
G37*
G36*
G01*
X7025000Y-23450000D02*
X7975000Y-23450000D01*
G75*
G02*
X8225000Y-23700000I0J-250000D01*
G01*
X8225000Y-24200000D01*
G75*
G02*
X7975000Y-24450000I-250000J0D01*
G01*
X7025000Y-24450000D01*
G75*
G02*
X6775000Y-24200000I0J250000D01*
G01*
X6775000Y-23700000D01*
G75*
G02*
X7025000Y-23450000I250000J0D01*
G01*
G37*
G36*
G01*
X18975000Y-10950000D02*
X18025000Y-10950000D01*
G75*
G02*
X17775000Y-10700000I0J250000D01*
G01*
X17775000Y-10200000D01*
G75*
G02*
X18025000Y-9950000I250000J0D01*
G01*
X18975000Y-9950000D01*
G75*
G02*
X19225000Y-10200000I0J-250000D01*
G01*
X19225000Y-10700000D01*
G75*
G02*
X18975000Y-10950000I-250000J0D01*
G01*
G37*
G36*
G01*
X18975000Y-9050000D02*
X18025000Y-9050000D01*
G75*
G02*
X17775000Y-8800000I0J250000D01*
G01*
X17775000Y-8300000D01*
G75*
G02*
X18025000Y-8050000I250000J0D01*
G01*
X18975000Y-8050000D01*
G75*
G02*
X19225000Y-8300000I0J-250000D01*
G01*
X19225000Y-8800000D01*
G75*
G02*
X18975000Y-9050000I-250000J0D01*
G01*
G37*
D11*
X24500000Y-10500000D03*
D12*
X24500000Y-13040000D03*
X24500000Y-7960000D03*
X21960000Y-13040000D03*
X21960000Y-15580000D03*
X21960000Y-10500000D03*
X21960000Y-7960000D03*
X24500000Y-15580000D03*
X27040000Y-15580000D03*
X29580000Y-15580000D03*
X32120000Y-15580000D03*
X24500000Y-18120000D03*
X27040000Y-18120000D03*
X29580000Y-18120000D03*
X32120000Y-18120000D03*
X34660000Y-18120000D03*
X34660000Y-15580000D03*
X34660000Y-13040000D03*
X34660000Y-10500000D03*
X34660000Y-5420000D03*
X37200000Y-15580000D03*
X37200000Y-13040000D03*
X37200000Y-10500000D03*
X37200000Y-7960000D03*
X34660000Y-7960000D03*
X32120000Y-7960000D03*
X29580000Y-7960000D03*
X27040000Y-7960000D03*
X32120000Y-5420000D03*
X29580000Y-5420000D03*
X27040000Y-5420000D03*
X24500000Y-5420000D03*
D13*
X13000000Y-10500000D03*
D14*
X13000000Y-13040000D03*
M02*
