G04 #@! TF.GenerationSoftware,KiCad,Pcbnew,(5.1.8)-1*
G04 #@! TF.CreationDate,2020-11-23T14:14:14+01:00*
G04 #@! TF.ProjectId,MM1_FLASH_128k_A,4d4d315f-464c-4415-9348-5f3132386b5f,R1*
G04 #@! TF.SameCoordinates,PX6b49d20PY52f83c0*
G04 #@! TF.FileFunction,Legend,Bot*
G04 #@! TF.FilePolarity,Positive*
%FSLAX46Y46*%
G04 Gerber Fmt 4.6, Leading zero omitted, Abs format (unit mm)*
G04 Created by KiCad (PCBNEW (5.1.8)-1) date 2020-11-23 14:14:14*
%MOMM*%
%LPD*%
G01*
G04 APERTURE LIST*
%ADD10C,0.150000*%
%ADD11C,0.300000*%
%ADD12C,0.500000*%
%ADD13C,0.120000*%
G04 APERTURE END LIST*
D10*
X50333333Y-1428571D02*
X50190476Y-1476190D01*
X50142857Y-1523809D01*
X50095238Y-1619047D01*
X50095238Y-1761904D01*
X50142857Y-1857142D01*
X50190476Y-1904761D01*
X50285714Y-1952380D01*
X50666666Y-1952380D01*
X50666666Y-952380D01*
X50333333Y-952380D01*
X50238095Y-1000000D01*
X50190476Y-1047619D01*
X50142857Y-1142857D01*
X50142857Y-1238095D01*
X50190476Y-1333333D01*
X50238095Y-1380952D01*
X50333333Y-1428571D01*
X50666666Y-1428571D01*
X49476190Y-952380D02*
X49285714Y-952380D01*
X49190476Y-1000000D01*
X49095238Y-1095238D01*
X49047619Y-1285714D01*
X49047619Y-1619047D01*
X49095238Y-1809523D01*
X49190476Y-1904761D01*
X49285714Y-1952380D01*
X49476190Y-1952380D01*
X49571428Y-1904761D01*
X49666666Y-1809523D01*
X49714285Y-1619047D01*
X49714285Y-1285714D01*
X49666666Y-1095238D01*
X49571428Y-1000000D01*
X49476190Y-952380D01*
X48761904Y-952380D02*
X48190476Y-952380D01*
X48476190Y-1952380D02*
X48476190Y-952380D01*
D11*
X17957142Y-3042857D02*
X17957142Y-1842857D01*
X17557142Y-2700000D01*
X17157142Y-1842857D01*
X17157142Y-3042857D01*
X16585714Y-3042857D02*
X16585714Y-1842857D01*
X16185714Y-2700000D01*
X15785714Y-1842857D01*
X15785714Y-3042857D01*
X14585714Y-3042857D02*
X15271428Y-3042857D01*
X14928571Y-3042857D02*
X14928571Y-1842857D01*
X15042857Y-2014285D01*
X15157142Y-2128571D01*
X15271428Y-2185714D01*
X14357142Y-3157142D02*
X13442857Y-3157142D01*
X12757142Y-2414285D02*
X13157142Y-2414285D01*
X13157142Y-3042857D02*
X13157142Y-1842857D01*
X12585714Y-1842857D01*
X11557142Y-3042857D02*
X12128571Y-3042857D01*
X12128571Y-1842857D01*
X11214285Y-2700000D02*
X10642857Y-2700000D01*
X11328571Y-3042857D02*
X10928571Y-1842857D01*
X10528571Y-3042857D01*
X10185714Y-2985714D02*
X10014285Y-3042857D01*
X9728571Y-3042857D01*
X9614285Y-2985714D01*
X9557142Y-2928571D01*
X9500000Y-2814285D01*
X9500000Y-2700000D01*
X9557142Y-2585714D01*
X9614285Y-2528571D01*
X9728571Y-2471428D01*
X9957142Y-2414285D01*
X10071428Y-2357142D01*
X10128571Y-2300000D01*
X10185714Y-2185714D01*
X10185714Y-2071428D01*
X10128571Y-1957142D01*
X10071428Y-1900000D01*
X9957142Y-1842857D01*
X9671428Y-1842857D01*
X9500000Y-1900000D01*
X8985714Y-3042857D02*
X8985714Y-1842857D01*
X8985714Y-2414285D02*
X8300000Y-2414285D01*
X8300000Y-3042857D02*
X8300000Y-1842857D01*
X8014285Y-3157142D02*
X7100000Y-3157142D01*
X6185714Y-3042857D02*
X6871428Y-3042857D01*
X6528571Y-3042857D02*
X6528571Y-1842857D01*
X6642857Y-2014285D01*
X6757142Y-2128571D01*
X6871428Y-2185714D01*
X5728571Y-1957142D02*
X5671428Y-1900000D01*
X5557142Y-1842857D01*
X5271428Y-1842857D01*
X5157142Y-1900000D01*
X5100000Y-1957142D01*
X5042857Y-2071428D01*
X5042857Y-2185714D01*
X5100000Y-2357142D01*
X5785714Y-3042857D01*
X5042857Y-3042857D01*
X4357142Y-2357142D02*
X4471428Y-2300000D01*
X4528571Y-2242857D01*
X4585714Y-2128571D01*
X4585714Y-2071428D01*
X4528571Y-1957142D01*
X4471428Y-1900000D01*
X4357142Y-1842857D01*
X4128571Y-1842857D01*
X4014285Y-1900000D01*
X3957142Y-1957142D01*
X3900000Y-2071428D01*
X3900000Y-2128571D01*
X3957142Y-2242857D01*
X4014285Y-2300000D01*
X4128571Y-2357142D01*
X4357142Y-2357142D01*
X4471428Y-2414285D01*
X4528571Y-2471428D01*
X4585714Y-2585714D01*
X4585714Y-2814285D01*
X4528571Y-2928571D01*
X4471428Y-2985714D01*
X4357142Y-3042857D01*
X4128571Y-3042857D01*
X4014285Y-2985714D01*
X3957142Y-2928571D01*
X3900000Y-2814285D01*
X3900000Y-2585714D01*
X3957142Y-2471428D01*
X4014285Y-2414285D01*
X4128571Y-2357142D01*
X3385714Y-3042857D02*
X3385714Y-1842857D01*
X3271428Y-2585714D02*
X2928571Y-3042857D01*
X2928571Y-2242857D02*
X3385714Y-2700000D01*
X2700000Y-3157142D02*
X1785714Y-3157142D01*
X1557142Y-2700000D02*
X985714Y-2700000D01*
X1671428Y-3042857D02*
X1271428Y-1842857D01*
X871428Y-3042857D01*
D12*
X47642857Y-22857142D02*
X49357142Y-22857142D01*
X48500000Y-22857142D02*
X48500000Y-19857142D01*
X48785714Y-20285714D01*
X49071428Y-20571428D01*
X49357142Y-20714285D01*
D13*
X6765000Y-22738748D02*
X6765000Y-23261252D01*
X8235000Y-22738748D02*
X8235000Y-23261252D01*
X19235000Y-9761252D02*
X19235000Y-9238748D01*
X17765000Y-9761252D02*
X17765000Y-9238748D01*
D10*
X6177142Y-22833333D02*
X6224761Y-22785714D01*
X6272380Y-22642857D01*
X6272380Y-22547619D01*
X6224761Y-22404761D01*
X6129523Y-22309523D01*
X6034285Y-22261904D01*
X5843809Y-22214285D01*
X5700952Y-22214285D01*
X5510476Y-22261904D01*
X5415238Y-22309523D01*
X5320000Y-22404761D01*
X5272380Y-22547619D01*
X5272380Y-22642857D01*
X5320000Y-22785714D01*
X5367619Y-22833333D01*
X6272380Y-23785714D02*
X6272380Y-23214285D01*
X6272380Y-23500000D02*
X5272380Y-23500000D01*
X5415238Y-23404761D01*
X5510476Y-23309523D01*
X5558095Y-23214285D01*
X16857142Y-9333333D02*
X16904761Y-9285714D01*
X16952380Y-9142857D01*
X16952380Y-9047619D01*
X16904761Y-8904761D01*
X16809523Y-8809523D01*
X16714285Y-8761904D01*
X16523809Y-8714285D01*
X16380952Y-8714285D01*
X16190476Y-8761904D01*
X16095238Y-8809523D01*
X16000000Y-8904761D01*
X15952380Y-9047619D01*
X15952380Y-9142857D01*
X16000000Y-9285714D01*
X16047619Y-9333333D01*
X16047619Y-9714285D02*
X16000000Y-9761904D01*
X15952380Y-9857142D01*
X15952380Y-10095238D01*
X16000000Y-10190476D01*
X16047619Y-10238095D01*
X16142857Y-10285714D01*
X16238095Y-10285714D01*
X16380952Y-10238095D01*
X16952380Y-9666666D01*
X16952380Y-10285714D01*
M02*
