G04 #@! TF.GenerationSoftware,KiCad,Pcbnew,(5.1.8)-1*
G04 #@! TF.CreationDate,2020-11-23T14:14:14+01:00*
G04 #@! TF.ProjectId,MM1_FLASH_128k_A,4d4d315f-464c-4415-9348-5f3132386b5f,R1*
G04 #@! TF.SameCoordinates,PX6b49d20PY52f83c0*
G04 #@! TF.FileFunction,Copper,L2,Bot*
G04 #@! TF.FilePolarity,Positive*
%FSLAX46Y46*%
G04 Gerber Fmt 4.6, Leading zero omitted, Abs format (unit mm)*
G04 Created by KiCad (PCBNEW (5.1.8)-1) date 2020-11-23 14:14:14*
%MOMM*%
%LPD*%
G01*
G04 APERTURE LIST*
G04 #@! TA.AperFunction,SMDPad,CuDef*
%ADD10R,1.700000X7.500000*%
G04 #@! TD*
G04 #@! TA.AperFunction,ComponentPad*
%ADD11R,1.422400X1.422400*%
G04 #@! TD*
G04 #@! TA.AperFunction,ComponentPad*
%ADD12C,1.422400*%
G04 #@! TD*
G04 #@! TA.AperFunction,ComponentPad*
%ADD13R,1.700000X1.700000*%
G04 #@! TD*
G04 #@! TA.AperFunction,ComponentPad*
%ADD14O,1.700000X1.700000*%
G04 #@! TD*
G04 #@! TA.AperFunction,ViaPad*
%ADD15C,0.450000*%
G04 #@! TD*
G04 #@! TA.AperFunction,Conductor*
%ADD16C,0.250000*%
G04 #@! TD*
G04 #@! TA.AperFunction,Conductor*
%ADD17C,0.200000*%
G04 #@! TD*
G04 #@! TA.AperFunction,Conductor*
%ADD18C,0.254000*%
G04 #@! TD*
G04 #@! TA.AperFunction,Conductor*
%ADD19C,0.100000*%
G04 #@! TD*
G04 APERTURE END LIST*
D10*
X7530000Y-29890000D03*
X10070000Y-29890000D03*
X12610000Y-29890000D03*
X15150000Y-29890000D03*
X17690000Y-29890000D03*
X20230000Y-29890000D03*
X22770000Y-29890000D03*
X25310000Y-29890000D03*
X27850000Y-29890000D03*
X30390000Y-29890000D03*
X32930000Y-29890000D03*
X35470000Y-29890000D03*
X38010000Y-29890000D03*
X40550000Y-29890000D03*
X43090000Y-29890000D03*
G04 #@! TA.AperFunction,SMDPad,CuDef*
G36*
G01*
X7025000Y-21550000D02*
X7975000Y-21550000D01*
G75*
G02*
X8225000Y-21800000I0J-250000D01*
G01*
X8225000Y-22300000D01*
G75*
G02*
X7975000Y-22550000I-250000J0D01*
G01*
X7025000Y-22550000D01*
G75*
G02*
X6775000Y-22300000I0J250000D01*
G01*
X6775000Y-21800000D01*
G75*
G02*
X7025000Y-21550000I250000J0D01*
G01*
G37*
G04 #@! TD.AperFunction*
G04 #@! TA.AperFunction,SMDPad,CuDef*
G36*
G01*
X7025000Y-23450000D02*
X7975000Y-23450000D01*
G75*
G02*
X8225000Y-23700000I0J-250000D01*
G01*
X8225000Y-24200000D01*
G75*
G02*
X7975000Y-24450000I-250000J0D01*
G01*
X7025000Y-24450000D01*
G75*
G02*
X6775000Y-24200000I0J250000D01*
G01*
X6775000Y-23700000D01*
G75*
G02*
X7025000Y-23450000I250000J0D01*
G01*
G37*
G04 #@! TD.AperFunction*
G04 #@! TA.AperFunction,SMDPad,CuDef*
G36*
G01*
X18975000Y-10950000D02*
X18025000Y-10950000D01*
G75*
G02*
X17775000Y-10700000I0J250000D01*
G01*
X17775000Y-10200000D01*
G75*
G02*
X18025000Y-9950000I250000J0D01*
G01*
X18975000Y-9950000D01*
G75*
G02*
X19225000Y-10200000I0J-250000D01*
G01*
X19225000Y-10700000D01*
G75*
G02*
X18975000Y-10950000I-250000J0D01*
G01*
G37*
G04 #@! TD.AperFunction*
G04 #@! TA.AperFunction,SMDPad,CuDef*
G36*
G01*
X18975000Y-9050000D02*
X18025000Y-9050000D01*
G75*
G02*
X17775000Y-8800000I0J250000D01*
G01*
X17775000Y-8300000D01*
G75*
G02*
X18025000Y-8050000I250000J0D01*
G01*
X18975000Y-8050000D01*
G75*
G02*
X19225000Y-8300000I0J-250000D01*
G01*
X19225000Y-8800000D01*
G75*
G02*
X18975000Y-9050000I-250000J0D01*
G01*
G37*
G04 #@! TD.AperFunction*
D11*
X24500000Y-10500000D03*
D12*
X24500000Y-13040000D03*
X24500000Y-7960000D03*
X21960000Y-13040000D03*
X21960000Y-15580000D03*
X21960000Y-10500000D03*
X21960000Y-7960000D03*
X24500000Y-15580000D03*
X27040000Y-15580000D03*
X29580000Y-15580000D03*
X32120000Y-15580000D03*
X24500000Y-18120000D03*
X27040000Y-18120000D03*
X29580000Y-18120000D03*
X32120000Y-18120000D03*
X34660000Y-18120000D03*
X34660000Y-15580000D03*
X34660000Y-13040000D03*
X34660000Y-10500000D03*
X34660000Y-5420000D03*
X37200000Y-15580000D03*
X37200000Y-13040000D03*
X37200000Y-10500000D03*
X37200000Y-7960000D03*
X34660000Y-7960000D03*
X32120000Y-7960000D03*
X29580000Y-7960000D03*
X27040000Y-7960000D03*
X32120000Y-5420000D03*
X29580000Y-5420000D03*
X27040000Y-5420000D03*
X24500000Y-5420000D03*
D13*
X13000000Y-10500000D03*
D14*
X13000000Y-13040000D03*
D15*
X11867500Y-17500500D03*
X39420000Y-20340000D03*
X19928400Y-15958400D03*
X19463000Y-16602800D03*
X20395200Y-18601400D03*
X20765400Y-24111600D03*
X22205700Y-25537400D03*
X20269390Y-15151100D03*
X24040000Y-25859700D03*
X23493200Y-19613600D03*
X24980600Y-25163000D03*
X33697600Y-19909500D03*
X34316600Y-21066300D03*
X34200000Y-25859700D03*
X36740000Y-25859700D03*
X39280000Y-25859700D03*
D16*
X7500000Y-21868000D02*
X7500000Y-22050000D01*
X43090000Y-29890000D02*
X43090000Y-18930000D01*
X43090000Y-18930000D02*
X37200000Y-13040000D01*
X18500000Y-10475000D02*
X13025000Y-10475000D01*
X21960000Y-10500000D02*
X18525000Y-10500000D01*
X18525000Y-10500000D02*
X18500000Y-10475000D01*
X18500000Y-10475000D02*
X18500000Y-10450000D01*
X7530000Y-23950000D02*
X7530000Y-29890000D01*
X7500000Y-23950000D02*
X7530000Y-23950000D01*
X7500000Y-23950000D02*
X8990000Y-23950000D01*
X8990000Y-23950000D02*
X18500000Y-14440000D01*
X13025000Y-10475000D02*
X13000000Y-10500000D01*
X18500000Y-10450000D02*
X18500000Y-14440000D01*
D17*
X19928400Y-15958400D02*
X19343000Y-15958400D01*
X19343000Y-15958400D02*
X10070000Y-25231400D01*
X10070000Y-25231400D02*
X10070000Y-29890000D01*
X12610000Y-25859700D02*
X19463000Y-19006700D01*
X19463000Y-19006700D02*
X19463000Y-16602800D01*
X12610000Y-29890000D02*
X12610000Y-25859700D01*
X20395200Y-18601400D02*
X20395200Y-20614500D01*
X20395200Y-20614500D02*
X15150000Y-25859700D01*
X15150000Y-29890000D02*
X15150000Y-25859700D01*
X17690000Y-29890000D02*
X17690000Y-25840000D01*
X19418400Y-24111600D02*
X20765400Y-24111600D01*
X17690000Y-25840000D02*
X19418400Y-24111600D01*
X20230000Y-29890000D02*
X20230000Y-25990000D01*
X20682600Y-25537400D02*
X22205700Y-25537400D01*
X20230000Y-25990000D02*
X20682600Y-25537400D01*
X22770000Y-25384100D02*
X21073500Y-23687600D01*
X20494389Y-15376099D02*
X20269390Y-15151100D01*
X21073500Y-23687600D02*
X21073500Y-18564900D01*
X21073500Y-18564900D02*
X20494389Y-17985789D01*
X22770000Y-29890000D02*
X22770000Y-25384100D01*
X20494389Y-17985789D02*
X20494389Y-15376099D01*
X27040000Y-10420000D02*
X27040000Y-7960000D01*
X25630000Y-11830000D02*
X27040000Y-10420000D01*
X23087500Y-18691900D02*
X23087500Y-12432500D01*
X22974700Y-20676600D02*
X22974700Y-18804700D01*
X22974700Y-18804700D02*
X23087500Y-18691900D01*
X25485900Y-23187800D02*
X22974700Y-20676600D01*
X25485900Y-25683800D02*
X25485900Y-23187800D01*
X23690000Y-11830000D02*
X25630000Y-11830000D01*
X23087500Y-12432500D02*
X23690000Y-11830000D01*
X25310000Y-25859700D02*
X25485900Y-25683800D01*
X25310000Y-29890000D02*
X25310000Y-25859700D01*
X23123800Y-10801600D02*
X23123800Y-6796200D01*
X22141300Y-11784100D02*
X23123800Y-10801600D01*
X21515900Y-11784100D02*
X22141300Y-11784100D01*
X23123800Y-6796200D02*
X24500000Y-5420000D01*
X20968400Y-12331600D02*
X21515900Y-11784100D01*
X20968400Y-15990600D02*
X20968400Y-12331600D01*
X21453900Y-16476100D02*
X20968400Y-15990600D01*
X21453900Y-23273600D02*
X21453900Y-16476100D01*
X24040000Y-25859700D02*
X21453900Y-23273600D01*
X23493200Y-19613600D02*
X27850000Y-23970400D01*
X27850000Y-23970400D02*
X27850000Y-29890000D01*
X21960000Y-15580000D02*
X21960000Y-22142400D01*
X21960000Y-22142400D02*
X24980600Y-25163000D01*
X29580000Y-9372300D02*
X29580000Y-7960000D01*
X24642300Y-14310000D02*
X29580000Y-9372300D01*
X24080000Y-14310000D02*
X24642300Y-14310000D01*
X23496000Y-14894000D02*
X24080000Y-14310000D01*
X30390000Y-25774000D02*
X23496000Y-18880000D01*
X23496000Y-18880000D02*
X23496000Y-14894000D01*
X30390000Y-29890000D02*
X30390000Y-25774000D01*
X32120000Y-5420000D02*
X33521500Y-6821500D01*
X33521500Y-6821500D02*
X33521500Y-19733400D01*
X33521500Y-19733400D02*
X33697600Y-19909500D01*
X32930000Y-26550000D02*
X24500000Y-18120000D01*
X32930000Y-29890000D02*
X32930000Y-26550000D01*
X34139700Y-21066300D02*
X34316600Y-21066300D01*
X33130400Y-20057000D02*
X34139700Y-21066300D01*
X33130400Y-15188100D02*
X33130400Y-20057000D01*
X29970000Y-6710000D02*
X30850000Y-7590000D01*
X30850000Y-12907700D02*
X33130400Y-15188100D01*
X30850000Y-7590000D02*
X30850000Y-12907700D01*
X28330000Y-6710000D02*
X29970000Y-6710000D01*
X27040000Y-5420000D02*
X28330000Y-6710000D01*
X27304300Y-18120000D02*
X27040000Y-18120000D01*
X35470000Y-26285700D02*
X27304300Y-18120000D01*
X35470000Y-29890000D02*
X35470000Y-26285700D01*
X24500000Y-15580000D02*
X25497100Y-16577100D01*
X25497100Y-16577100D02*
X25497100Y-18001500D01*
X25497100Y-18001500D02*
X32488400Y-24992800D01*
X32488400Y-24992800D02*
X33333100Y-24992800D01*
X33333100Y-24992800D02*
X34200000Y-25859700D01*
X38010000Y-29890000D02*
X38010000Y-25859700D01*
X29580000Y-18120000D02*
X36768100Y-25308100D01*
X36768100Y-25308100D02*
X37458400Y-25308100D01*
X37458400Y-25308100D02*
X38010000Y-25859700D01*
X27040000Y-15580000D02*
X28310000Y-16850000D01*
X28310000Y-16850000D02*
X28310000Y-18348400D01*
X28310000Y-18348400D02*
X35086500Y-25124900D01*
X35086500Y-25124900D02*
X36005200Y-25124900D01*
X36005200Y-25124900D02*
X36740000Y-25859700D01*
X40550000Y-25859700D02*
X36677200Y-21986900D01*
X36677200Y-21986900D02*
X34522500Y-21986900D01*
X34522500Y-21986900D02*
X32120000Y-19584400D01*
X32120000Y-19584400D02*
X32120000Y-18120000D01*
X40550000Y-29890000D02*
X40550000Y-25859700D01*
X39280000Y-25859700D02*
X35787500Y-22367200D01*
X35787500Y-22367200D02*
X34365000Y-22367200D01*
X34365000Y-22367200D02*
X30816400Y-18818600D01*
X30816400Y-18818600D02*
X30816400Y-16816400D01*
X30816400Y-16816400D02*
X29580000Y-15580000D01*
D18*
X50790000Y-22705908D02*
X49205909Y-24290000D01*
X45534877Y-24290000D01*
X45500000Y-24286565D01*
X45465123Y-24290000D01*
X45360816Y-24300273D01*
X45226980Y-24340872D01*
X45103637Y-24406800D01*
X44995525Y-24495525D01*
X44906800Y-24603637D01*
X44840872Y-24726980D01*
X44800273Y-24860816D01*
X44786565Y-25000000D01*
X44790000Y-25034876D01*
X44790001Y-33290000D01*
X44577762Y-33290000D01*
X44575000Y-30175750D01*
X44416250Y-30017000D01*
X43217000Y-30017000D01*
X43217000Y-30037000D01*
X42963000Y-30037000D01*
X42963000Y-30017000D01*
X42943000Y-30017000D01*
X42943000Y-29763000D01*
X42963000Y-29763000D01*
X42963000Y-25663750D01*
X43217000Y-25663750D01*
X43217000Y-29763000D01*
X44416250Y-29763000D01*
X44575000Y-29604250D01*
X44578072Y-26140000D01*
X44565812Y-26015518D01*
X44529502Y-25895820D01*
X44470537Y-25785506D01*
X44391185Y-25688815D01*
X44294494Y-25609463D01*
X44184180Y-25550498D01*
X44064482Y-25514188D01*
X43940000Y-25501928D01*
X43375750Y-25505000D01*
X43217000Y-25663750D01*
X42963000Y-25663750D01*
X42804250Y-25505000D01*
X42240000Y-25501928D01*
X42115518Y-25514188D01*
X41995820Y-25550498D01*
X41885506Y-25609463D01*
X41820000Y-25663222D01*
X41754494Y-25609463D01*
X41644180Y-25550498D01*
X41524482Y-25514188D01*
X41400000Y-25501928D01*
X41192174Y-25501928D01*
X41164087Y-25449380D01*
X41072238Y-25337462D01*
X41044193Y-25314446D01*
X37222459Y-21492713D01*
X37199438Y-21464662D01*
X37087520Y-21372813D01*
X36959833Y-21304563D01*
X36821285Y-21262535D01*
X36713305Y-21251900D01*
X36677200Y-21248344D01*
X36641095Y-21251900D01*
X35156531Y-21251900D01*
X35176600Y-21151003D01*
X35176600Y-20981597D01*
X35143551Y-20815447D01*
X35078722Y-20658937D01*
X34984605Y-20518082D01*
X34864818Y-20398295D01*
X34723963Y-20304178D01*
X34567453Y-20239349D01*
X34497586Y-20225452D01*
X34524551Y-20160353D01*
X34557600Y-19994203D01*
X34557600Y-19824797D01*
X34524551Y-19658647D01*
X34459722Y-19502137D01*
X34421653Y-19445164D01*
X34527411Y-19466200D01*
X34792589Y-19466200D01*
X35052672Y-19414467D01*
X35297665Y-19312987D01*
X35518153Y-19165662D01*
X35705662Y-18978153D01*
X35852987Y-18757665D01*
X35954467Y-18512672D01*
X36006200Y-18252589D01*
X36006200Y-17987411D01*
X35954467Y-17727328D01*
X35852987Y-17482335D01*
X35705662Y-17261847D01*
X35518153Y-17074338D01*
X35297665Y-16927013D01*
X35111740Y-16850000D01*
X35297665Y-16772987D01*
X35518153Y-16625662D01*
X35705662Y-16438153D01*
X35852987Y-16217665D01*
X35930000Y-16031740D01*
X36007013Y-16217665D01*
X36154338Y-16438153D01*
X36341847Y-16625662D01*
X36562335Y-16772987D01*
X36807328Y-16874467D01*
X37067411Y-16926200D01*
X37332589Y-16926200D01*
X37592672Y-16874467D01*
X37837665Y-16772987D01*
X38058153Y-16625662D01*
X38245662Y-16438153D01*
X38392987Y-16217665D01*
X38494467Y-15972672D01*
X38546200Y-15712589D01*
X38546200Y-15447411D01*
X38494467Y-15187328D01*
X38392987Y-14942335D01*
X38245662Y-14721847D01*
X38058153Y-14534338D01*
X37837665Y-14387013D01*
X37649400Y-14309031D01*
X37785280Y-14259542D01*
X37888848Y-14204183D01*
X37949668Y-13969273D01*
X37200000Y-13219605D01*
X36450332Y-13969273D01*
X36511152Y-14204183D01*
X36742934Y-14312206D01*
X36562335Y-14387013D01*
X36341847Y-14534338D01*
X36154338Y-14721847D01*
X36007013Y-14942335D01*
X35930000Y-15128260D01*
X35852987Y-14942335D01*
X35705662Y-14721847D01*
X35518153Y-14534338D01*
X35297665Y-14387013D01*
X35111740Y-14310000D01*
X35297665Y-14232987D01*
X35518153Y-14085662D01*
X35705662Y-13898153D01*
X35852987Y-13677665D01*
X35930969Y-13489400D01*
X35980458Y-13625280D01*
X36035817Y-13728848D01*
X36270727Y-13789668D01*
X37020395Y-13040000D01*
X37379605Y-13040000D01*
X38129273Y-13789668D01*
X38364183Y-13728848D01*
X38476202Y-13488491D01*
X38539176Y-13230898D01*
X38550687Y-12965970D01*
X38510291Y-12703887D01*
X38419542Y-12454720D01*
X38364183Y-12351152D01*
X38129273Y-12290332D01*
X37379605Y-13040000D01*
X37020395Y-13040000D01*
X36270727Y-12290332D01*
X36035817Y-12351152D01*
X35927794Y-12582934D01*
X35852987Y-12402335D01*
X35705662Y-12181847D01*
X35518153Y-11994338D01*
X35297665Y-11847013D01*
X35111740Y-11770000D01*
X35297665Y-11692987D01*
X35518153Y-11545662D01*
X35705662Y-11358153D01*
X35852987Y-11137665D01*
X35930000Y-10951740D01*
X36007013Y-11137665D01*
X36154338Y-11358153D01*
X36341847Y-11545662D01*
X36562335Y-11692987D01*
X36750600Y-11770969D01*
X36614720Y-11820458D01*
X36511152Y-11875817D01*
X36450332Y-12110727D01*
X37200000Y-12860395D01*
X37949668Y-12110727D01*
X37888848Y-11875817D01*
X37657066Y-11767794D01*
X37837665Y-11692987D01*
X38058153Y-11545662D01*
X38245662Y-11358153D01*
X38392987Y-11137665D01*
X38494467Y-10892672D01*
X38546200Y-10632589D01*
X38546200Y-10367411D01*
X38494467Y-10107328D01*
X38392987Y-9862335D01*
X38245662Y-9641847D01*
X38058153Y-9454338D01*
X37837665Y-9307013D01*
X37651740Y-9230000D01*
X37837665Y-9152987D01*
X38058153Y-9005662D01*
X38245662Y-8818153D01*
X38392987Y-8597665D01*
X38494467Y-8352672D01*
X38546200Y-8092589D01*
X38546200Y-7827411D01*
X38494467Y-7567328D01*
X38392987Y-7322335D01*
X38245662Y-7101847D01*
X38058153Y-6914338D01*
X37837665Y-6767013D01*
X37592672Y-6665533D01*
X37332589Y-6613800D01*
X37067411Y-6613800D01*
X36807328Y-6665533D01*
X36562335Y-6767013D01*
X36341847Y-6914338D01*
X36154338Y-7101847D01*
X36007013Y-7322335D01*
X35930000Y-7508260D01*
X35852987Y-7322335D01*
X35705662Y-7101847D01*
X35518153Y-6914338D01*
X35297665Y-6767013D01*
X35111740Y-6690000D01*
X35297665Y-6612987D01*
X35518153Y-6465662D01*
X35705662Y-6278153D01*
X35852987Y-6057665D01*
X35954467Y-5812672D01*
X36006200Y-5552589D01*
X36006200Y-5287411D01*
X35954467Y-5027328D01*
X35852987Y-4782335D01*
X35705662Y-4561847D01*
X35518153Y-4374338D01*
X35297665Y-4227013D01*
X35052672Y-4125533D01*
X34792589Y-4073800D01*
X34527411Y-4073800D01*
X34267328Y-4125533D01*
X34022335Y-4227013D01*
X33801847Y-4374338D01*
X33614338Y-4561847D01*
X33467013Y-4782335D01*
X33390000Y-4968260D01*
X33312987Y-4782335D01*
X33165662Y-4561847D01*
X32978153Y-4374338D01*
X32757665Y-4227013D01*
X32512672Y-4125533D01*
X32252589Y-4073800D01*
X31987411Y-4073800D01*
X31727328Y-4125533D01*
X31482335Y-4227013D01*
X31261847Y-4374338D01*
X31074338Y-4561847D01*
X30927013Y-4782335D01*
X30850000Y-4968260D01*
X30772987Y-4782335D01*
X30625662Y-4561847D01*
X30438153Y-4374338D01*
X30217665Y-4227013D01*
X29972672Y-4125533D01*
X29712589Y-4073800D01*
X29447411Y-4073800D01*
X29187328Y-4125533D01*
X28942335Y-4227013D01*
X28721847Y-4374338D01*
X28534338Y-4561847D01*
X28387013Y-4782335D01*
X28310000Y-4968260D01*
X28232987Y-4782335D01*
X28085662Y-4561847D01*
X27898153Y-4374338D01*
X27677665Y-4227013D01*
X27432672Y-4125533D01*
X27172589Y-4073800D01*
X26907411Y-4073800D01*
X26647328Y-4125533D01*
X26402335Y-4227013D01*
X26181847Y-4374338D01*
X25994338Y-4561847D01*
X25847013Y-4782335D01*
X25770000Y-4968260D01*
X25692987Y-4782335D01*
X25545662Y-4561847D01*
X25358153Y-4374338D01*
X25137665Y-4227013D01*
X24892672Y-4125533D01*
X24632589Y-4073800D01*
X24367411Y-4073800D01*
X24107328Y-4125533D01*
X23862335Y-4227013D01*
X23641847Y-4374338D01*
X23454338Y-4561847D01*
X23307013Y-4782335D01*
X23205533Y-5027328D01*
X23153800Y-5287411D01*
X23153800Y-5552589D01*
X23182695Y-5697858D01*
X22629608Y-6250946D01*
X22601563Y-6273962D01*
X22509714Y-6385880D01*
X22487539Y-6427367D01*
X22441464Y-6513567D01*
X22399435Y-6652115D01*
X22396332Y-6683618D01*
X22352672Y-6665533D01*
X22092589Y-6613800D01*
X21827411Y-6613800D01*
X21567328Y-6665533D01*
X21322335Y-6767013D01*
X21101847Y-6914338D01*
X20914338Y-7101847D01*
X20767013Y-7322335D01*
X20665533Y-7567328D01*
X20613800Y-7827411D01*
X20613800Y-8092589D01*
X20665533Y-8352672D01*
X20767013Y-8597665D01*
X20914338Y-8818153D01*
X21101847Y-9005662D01*
X21322335Y-9152987D01*
X21508260Y-9230000D01*
X21322335Y-9307013D01*
X21101847Y-9454338D01*
X20914338Y-9641847D01*
X20848754Y-9740000D01*
X19731250Y-9740000D01*
X19713405Y-9706614D01*
X19602962Y-9572038D01*
X19596406Y-9566658D01*
X19676185Y-9501185D01*
X19755537Y-9404494D01*
X19814502Y-9294180D01*
X19850812Y-9174482D01*
X19863072Y-9050000D01*
X19860000Y-8835750D01*
X19701250Y-8677000D01*
X18627000Y-8677000D01*
X18627000Y-8697000D01*
X18373000Y-8697000D01*
X18373000Y-8677000D01*
X17298750Y-8677000D01*
X17140000Y-8835750D01*
X17136928Y-9050000D01*
X17149188Y-9174482D01*
X17185498Y-9294180D01*
X17244463Y-9404494D01*
X17323815Y-9501185D01*
X17403594Y-9566658D01*
X17397038Y-9572038D01*
X17286595Y-9706614D01*
X17282113Y-9715000D01*
X14488072Y-9715000D01*
X14488072Y-9650000D01*
X14475812Y-9525518D01*
X14439502Y-9405820D01*
X14380537Y-9295506D01*
X14301185Y-9198815D01*
X14204494Y-9119463D01*
X14094180Y-9060498D01*
X13974482Y-9024188D01*
X13850000Y-9011928D01*
X12150000Y-9011928D01*
X12025518Y-9024188D01*
X11905820Y-9060498D01*
X11795506Y-9119463D01*
X11698815Y-9198815D01*
X11619463Y-9295506D01*
X11560498Y-9405820D01*
X11524188Y-9525518D01*
X11511928Y-9650000D01*
X11511928Y-11350000D01*
X11524188Y-11474482D01*
X11560498Y-11594180D01*
X11619463Y-11704494D01*
X11698815Y-11801185D01*
X11795506Y-11880537D01*
X11905820Y-11939502D01*
X11978380Y-11961513D01*
X11846525Y-12093368D01*
X11684010Y-12336589D01*
X11572068Y-12606842D01*
X11515000Y-12893740D01*
X11515000Y-13186260D01*
X11572068Y-13473158D01*
X11684010Y-13743411D01*
X11846525Y-13986632D01*
X12053368Y-14193475D01*
X12296589Y-14355990D01*
X12566842Y-14467932D01*
X12853740Y-14525000D01*
X13146260Y-14525000D01*
X13433158Y-14467932D01*
X13703411Y-14355990D01*
X13946632Y-14193475D01*
X14153475Y-13986632D01*
X14315990Y-13743411D01*
X14427932Y-13473158D01*
X14485000Y-13186260D01*
X14485000Y-12893740D01*
X14427932Y-12606842D01*
X14315990Y-12336589D01*
X14153475Y-12093368D01*
X14021620Y-11961513D01*
X14094180Y-11939502D01*
X14204494Y-11880537D01*
X14301185Y-11801185D01*
X14380537Y-11704494D01*
X14439502Y-11594180D01*
X14475812Y-11474482D01*
X14488072Y-11350000D01*
X14488072Y-11235000D01*
X17320747Y-11235000D01*
X17397038Y-11327962D01*
X17531614Y-11438405D01*
X17685150Y-11520472D01*
X17740000Y-11537111D01*
X17740001Y-14125197D01*
X8688695Y-23176504D01*
X8602962Y-23072038D01*
X8596406Y-23066658D01*
X8676185Y-23001185D01*
X8755537Y-22904494D01*
X8814502Y-22794180D01*
X8850812Y-22674482D01*
X8863072Y-22550000D01*
X8860000Y-22335750D01*
X8701250Y-22177000D01*
X7627000Y-22177000D01*
X7627000Y-22197000D01*
X7373000Y-22197000D01*
X7373000Y-22177000D01*
X6298750Y-22177000D01*
X6140000Y-22335750D01*
X6136928Y-22550000D01*
X6149188Y-22674482D01*
X6185498Y-22794180D01*
X6244463Y-22904494D01*
X6323815Y-23001185D01*
X6403594Y-23066658D01*
X6397038Y-23072038D01*
X6286595Y-23206614D01*
X6204528Y-23360150D01*
X6153992Y-23526746D01*
X6136928Y-23700000D01*
X6136928Y-24200000D01*
X6153992Y-24373254D01*
X6204528Y-24539850D01*
X6286595Y-24693386D01*
X6397038Y-24827962D01*
X6531614Y-24938405D01*
X6685150Y-25020472D01*
X6770000Y-25046211D01*
X6770000Y-25501928D01*
X6680000Y-25501928D01*
X6555518Y-25514188D01*
X6435820Y-25550498D01*
X6325506Y-25609463D01*
X6228815Y-25688815D01*
X6149463Y-25785506D01*
X6090498Y-25895820D01*
X6054188Y-26015518D01*
X6041928Y-26140000D01*
X6041928Y-33290000D01*
X5710000Y-33290000D01*
X5710000Y-25034876D01*
X5713435Y-25000000D01*
X5699727Y-24860816D01*
X5659128Y-24726980D01*
X5593200Y-24603637D01*
X5504475Y-24495525D01*
X5396363Y-24406800D01*
X5273020Y-24340872D01*
X5139184Y-24300273D01*
X5034877Y-24290000D01*
X5000000Y-24286565D01*
X4965123Y-24290000D01*
X710000Y-24290000D01*
X710000Y-21550000D01*
X6136928Y-21550000D01*
X6140000Y-21764250D01*
X6298750Y-21923000D01*
X7373000Y-21923000D01*
X7373000Y-21073750D01*
X7627000Y-21073750D01*
X7627000Y-21923000D01*
X8701250Y-21923000D01*
X8860000Y-21764250D01*
X8863072Y-21550000D01*
X8850812Y-21425518D01*
X8814502Y-21305820D01*
X8755537Y-21195506D01*
X8676185Y-21098815D01*
X8579494Y-21019463D01*
X8469180Y-20960498D01*
X8349482Y-20924188D01*
X8225000Y-20911928D01*
X7785750Y-20915000D01*
X7627000Y-21073750D01*
X7373000Y-21073750D01*
X7214250Y-20915000D01*
X6775000Y-20911928D01*
X6650518Y-20924188D01*
X6530820Y-20960498D01*
X6420506Y-21019463D01*
X6323815Y-21098815D01*
X6244463Y-21195506D01*
X6185498Y-21305820D01*
X6149188Y-21425518D01*
X6136928Y-21550000D01*
X710000Y-21550000D01*
X710000Y-8050000D01*
X17136928Y-8050000D01*
X17140000Y-8264250D01*
X17298750Y-8423000D01*
X18373000Y-8423000D01*
X18373000Y-7573750D01*
X18627000Y-7573750D01*
X18627000Y-8423000D01*
X19701250Y-8423000D01*
X19860000Y-8264250D01*
X19863072Y-8050000D01*
X19850812Y-7925518D01*
X19814502Y-7805820D01*
X19755537Y-7695506D01*
X19676185Y-7598815D01*
X19579494Y-7519463D01*
X19469180Y-7460498D01*
X19349482Y-7424188D01*
X19225000Y-7411928D01*
X18785750Y-7415000D01*
X18627000Y-7573750D01*
X18373000Y-7573750D01*
X18214250Y-7415000D01*
X17775000Y-7411928D01*
X17650518Y-7424188D01*
X17530820Y-7460498D01*
X17420506Y-7519463D01*
X17323815Y-7598815D01*
X17244463Y-7695506D01*
X17185498Y-7805820D01*
X17149188Y-7925518D01*
X17136928Y-8050000D01*
X710000Y-8050000D01*
X710000Y-710000D01*
X50790001Y-710000D01*
X50790000Y-22705908D01*
G04 #@! TA.AperFunction,Conductor*
D19*
G36*
X50790000Y-22705908D02*
G01*
X49205909Y-24290000D01*
X45534877Y-24290000D01*
X45500000Y-24286565D01*
X45465123Y-24290000D01*
X45360816Y-24300273D01*
X45226980Y-24340872D01*
X45103637Y-24406800D01*
X44995525Y-24495525D01*
X44906800Y-24603637D01*
X44840872Y-24726980D01*
X44800273Y-24860816D01*
X44786565Y-25000000D01*
X44790000Y-25034876D01*
X44790001Y-33290000D01*
X44577762Y-33290000D01*
X44575000Y-30175750D01*
X44416250Y-30017000D01*
X43217000Y-30017000D01*
X43217000Y-30037000D01*
X42963000Y-30037000D01*
X42963000Y-30017000D01*
X42943000Y-30017000D01*
X42943000Y-29763000D01*
X42963000Y-29763000D01*
X42963000Y-25663750D01*
X43217000Y-25663750D01*
X43217000Y-29763000D01*
X44416250Y-29763000D01*
X44575000Y-29604250D01*
X44578072Y-26140000D01*
X44565812Y-26015518D01*
X44529502Y-25895820D01*
X44470537Y-25785506D01*
X44391185Y-25688815D01*
X44294494Y-25609463D01*
X44184180Y-25550498D01*
X44064482Y-25514188D01*
X43940000Y-25501928D01*
X43375750Y-25505000D01*
X43217000Y-25663750D01*
X42963000Y-25663750D01*
X42804250Y-25505000D01*
X42240000Y-25501928D01*
X42115518Y-25514188D01*
X41995820Y-25550498D01*
X41885506Y-25609463D01*
X41820000Y-25663222D01*
X41754494Y-25609463D01*
X41644180Y-25550498D01*
X41524482Y-25514188D01*
X41400000Y-25501928D01*
X41192174Y-25501928D01*
X41164087Y-25449380D01*
X41072238Y-25337462D01*
X41044193Y-25314446D01*
X37222459Y-21492713D01*
X37199438Y-21464662D01*
X37087520Y-21372813D01*
X36959833Y-21304563D01*
X36821285Y-21262535D01*
X36713305Y-21251900D01*
X36677200Y-21248344D01*
X36641095Y-21251900D01*
X35156531Y-21251900D01*
X35176600Y-21151003D01*
X35176600Y-20981597D01*
X35143551Y-20815447D01*
X35078722Y-20658937D01*
X34984605Y-20518082D01*
X34864818Y-20398295D01*
X34723963Y-20304178D01*
X34567453Y-20239349D01*
X34497586Y-20225452D01*
X34524551Y-20160353D01*
X34557600Y-19994203D01*
X34557600Y-19824797D01*
X34524551Y-19658647D01*
X34459722Y-19502137D01*
X34421653Y-19445164D01*
X34527411Y-19466200D01*
X34792589Y-19466200D01*
X35052672Y-19414467D01*
X35297665Y-19312987D01*
X35518153Y-19165662D01*
X35705662Y-18978153D01*
X35852987Y-18757665D01*
X35954467Y-18512672D01*
X36006200Y-18252589D01*
X36006200Y-17987411D01*
X35954467Y-17727328D01*
X35852987Y-17482335D01*
X35705662Y-17261847D01*
X35518153Y-17074338D01*
X35297665Y-16927013D01*
X35111740Y-16850000D01*
X35297665Y-16772987D01*
X35518153Y-16625662D01*
X35705662Y-16438153D01*
X35852987Y-16217665D01*
X35930000Y-16031740D01*
X36007013Y-16217665D01*
X36154338Y-16438153D01*
X36341847Y-16625662D01*
X36562335Y-16772987D01*
X36807328Y-16874467D01*
X37067411Y-16926200D01*
X37332589Y-16926200D01*
X37592672Y-16874467D01*
X37837665Y-16772987D01*
X38058153Y-16625662D01*
X38245662Y-16438153D01*
X38392987Y-16217665D01*
X38494467Y-15972672D01*
X38546200Y-15712589D01*
X38546200Y-15447411D01*
X38494467Y-15187328D01*
X38392987Y-14942335D01*
X38245662Y-14721847D01*
X38058153Y-14534338D01*
X37837665Y-14387013D01*
X37649400Y-14309031D01*
X37785280Y-14259542D01*
X37888848Y-14204183D01*
X37949668Y-13969273D01*
X37200000Y-13219605D01*
X36450332Y-13969273D01*
X36511152Y-14204183D01*
X36742934Y-14312206D01*
X36562335Y-14387013D01*
X36341847Y-14534338D01*
X36154338Y-14721847D01*
X36007013Y-14942335D01*
X35930000Y-15128260D01*
X35852987Y-14942335D01*
X35705662Y-14721847D01*
X35518153Y-14534338D01*
X35297665Y-14387013D01*
X35111740Y-14310000D01*
X35297665Y-14232987D01*
X35518153Y-14085662D01*
X35705662Y-13898153D01*
X35852987Y-13677665D01*
X35930969Y-13489400D01*
X35980458Y-13625280D01*
X36035817Y-13728848D01*
X36270727Y-13789668D01*
X37020395Y-13040000D01*
X37379605Y-13040000D01*
X38129273Y-13789668D01*
X38364183Y-13728848D01*
X38476202Y-13488491D01*
X38539176Y-13230898D01*
X38550687Y-12965970D01*
X38510291Y-12703887D01*
X38419542Y-12454720D01*
X38364183Y-12351152D01*
X38129273Y-12290332D01*
X37379605Y-13040000D01*
X37020395Y-13040000D01*
X36270727Y-12290332D01*
X36035817Y-12351152D01*
X35927794Y-12582934D01*
X35852987Y-12402335D01*
X35705662Y-12181847D01*
X35518153Y-11994338D01*
X35297665Y-11847013D01*
X35111740Y-11770000D01*
X35297665Y-11692987D01*
X35518153Y-11545662D01*
X35705662Y-11358153D01*
X35852987Y-11137665D01*
X35930000Y-10951740D01*
X36007013Y-11137665D01*
X36154338Y-11358153D01*
X36341847Y-11545662D01*
X36562335Y-11692987D01*
X36750600Y-11770969D01*
X36614720Y-11820458D01*
X36511152Y-11875817D01*
X36450332Y-12110727D01*
X37200000Y-12860395D01*
X37949668Y-12110727D01*
X37888848Y-11875817D01*
X37657066Y-11767794D01*
X37837665Y-11692987D01*
X38058153Y-11545662D01*
X38245662Y-11358153D01*
X38392987Y-11137665D01*
X38494467Y-10892672D01*
X38546200Y-10632589D01*
X38546200Y-10367411D01*
X38494467Y-10107328D01*
X38392987Y-9862335D01*
X38245662Y-9641847D01*
X38058153Y-9454338D01*
X37837665Y-9307013D01*
X37651740Y-9230000D01*
X37837665Y-9152987D01*
X38058153Y-9005662D01*
X38245662Y-8818153D01*
X38392987Y-8597665D01*
X38494467Y-8352672D01*
X38546200Y-8092589D01*
X38546200Y-7827411D01*
X38494467Y-7567328D01*
X38392987Y-7322335D01*
X38245662Y-7101847D01*
X38058153Y-6914338D01*
X37837665Y-6767013D01*
X37592672Y-6665533D01*
X37332589Y-6613800D01*
X37067411Y-6613800D01*
X36807328Y-6665533D01*
X36562335Y-6767013D01*
X36341847Y-6914338D01*
X36154338Y-7101847D01*
X36007013Y-7322335D01*
X35930000Y-7508260D01*
X35852987Y-7322335D01*
X35705662Y-7101847D01*
X35518153Y-6914338D01*
X35297665Y-6767013D01*
X35111740Y-6690000D01*
X35297665Y-6612987D01*
X35518153Y-6465662D01*
X35705662Y-6278153D01*
X35852987Y-6057665D01*
X35954467Y-5812672D01*
X36006200Y-5552589D01*
X36006200Y-5287411D01*
X35954467Y-5027328D01*
X35852987Y-4782335D01*
X35705662Y-4561847D01*
X35518153Y-4374338D01*
X35297665Y-4227013D01*
X35052672Y-4125533D01*
X34792589Y-4073800D01*
X34527411Y-4073800D01*
X34267328Y-4125533D01*
X34022335Y-4227013D01*
X33801847Y-4374338D01*
X33614338Y-4561847D01*
X33467013Y-4782335D01*
X33390000Y-4968260D01*
X33312987Y-4782335D01*
X33165662Y-4561847D01*
X32978153Y-4374338D01*
X32757665Y-4227013D01*
X32512672Y-4125533D01*
X32252589Y-4073800D01*
X31987411Y-4073800D01*
X31727328Y-4125533D01*
X31482335Y-4227013D01*
X31261847Y-4374338D01*
X31074338Y-4561847D01*
X30927013Y-4782335D01*
X30850000Y-4968260D01*
X30772987Y-4782335D01*
X30625662Y-4561847D01*
X30438153Y-4374338D01*
X30217665Y-4227013D01*
X29972672Y-4125533D01*
X29712589Y-4073800D01*
X29447411Y-4073800D01*
X29187328Y-4125533D01*
X28942335Y-4227013D01*
X28721847Y-4374338D01*
X28534338Y-4561847D01*
X28387013Y-4782335D01*
X28310000Y-4968260D01*
X28232987Y-4782335D01*
X28085662Y-4561847D01*
X27898153Y-4374338D01*
X27677665Y-4227013D01*
X27432672Y-4125533D01*
X27172589Y-4073800D01*
X26907411Y-4073800D01*
X26647328Y-4125533D01*
X26402335Y-4227013D01*
X26181847Y-4374338D01*
X25994338Y-4561847D01*
X25847013Y-4782335D01*
X25770000Y-4968260D01*
X25692987Y-4782335D01*
X25545662Y-4561847D01*
X25358153Y-4374338D01*
X25137665Y-4227013D01*
X24892672Y-4125533D01*
X24632589Y-4073800D01*
X24367411Y-4073800D01*
X24107328Y-4125533D01*
X23862335Y-4227013D01*
X23641847Y-4374338D01*
X23454338Y-4561847D01*
X23307013Y-4782335D01*
X23205533Y-5027328D01*
X23153800Y-5287411D01*
X23153800Y-5552589D01*
X23182695Y-5697858D01*
X22629608Y-6250946D01*
X22601563Y-6273962D01*
X22509714Y-6385880D01*
X22487539Y-6427367D01*
X22441464Y-6513567D01*
X22399435Y-6652115D01*
X22396332Y-6683618D01*
X22352672Y-6665533D01*
X22092589Y-6613800D01*
X21827411Y-6613800D01*
X21567328Y-6665533D01*
X21322335Y-6767013D01*
X21101847Y-6914338D01*
X20914338Y-7101847D01*
X20767013Y-7322335D01*
X20665533Y-7567328D01*
X20613800Y-7827411D01*
X20613800Y-8092589D01*
X20665533Y-8352672D01*
X20767013Y-8597665D01*
X20914338Y-8818153D01*
X21101847Y-9005662D01*
X21322335Y-9152987D01*
X21508260Y-9230000D01*
X21322335Y-9307013D01*
X21101847Y-9454338D01*
X20914338Y-9641847D01*
X20848754Y-9740000D01*
X19731250Y-9740000D01*
X19713405Y-9706614D01*
X19602962Y-9572038D01*
X19596406Y-9566658D01*
X19676185Y-9501185D01*
X19755537Y-9404494D01*
X19814502Y-9294180D01*
X19850812Y-9174482D01*
X19863072Y-9050000D01*
X19860000Y-8835750D01*
X19701250Y-8677000D01*
X18627000Y-8677000D01*
X18627000Y-8697000D01*
X18373000Y-8697000D01*
X18373000Y-8677000D01*
X17298750Y-8677000D01*
X17140000Y-8835750D01*
X17136928Y-9050000D01*
X17149188Y-9174482D01*
X17185498Y-9294180D01*
X17244463Y-9404494D01*
X17323815Y-9501185D01*
X17403594Y-9566658D01*
X17397038Y-9572038D01*
X17286595Y-9706614D01*
X17282113Y-9715000D01*
X14488072Y-9715000D01*
X14488072Y-9650000D01*
X14475812Y-9525518D01*
X14439502Y-9405820D01*
X14380537Y-9295506D01*
X14301185Y-9198815D01*
X14204494Y-9119463D01*
X14094180Y-9060498D01*
X13974482Y-9024188D01*
X13850000Y-9011928D01*
X12150000Y-9011928D01*
X12025518Y-9024188D01*
X11905820Y-9060498D01*
X11795506Y-9119463D01*
X11698815Y-9198815D01*
X11619463Y-9295506D01*
X11560498Y-9405820D01*
X11524188Y-9525518D01*
X11511928Y-9650000D01*
X11511928Y-11350000D01*
X11524188Y-11474482D01*
X11560498Y-11594180D01*
X11619463Y-11704494D01*
X11698815Y-11801185D01*
X11795506Y-11880537D01*
X11905820Y-11939502D01*
X11978380Y-11961513D01*
X11846525Y-12093368D01*
X11684010Y-12336589D01*
X11572068Y-12606842D01*
X11515000Y-12893740D01*
X11515000Y-13186260D01*
X11572068Y-13473158D01*
X11684010Y-13743411D01*
X11846525Y-13986632D01*
X12053368Y-14193475D01*
X12296589Y-14355990D01*
X12566842Y-14467932D01*
X12853740Y-14525000D01*
X13146260Y-14525000D01*
X13433158Y-14467932D01*
X13703411Y-14355990D01*
X13946632Y-14193475D01*
X14153475Y-13986632D01*
X14315990Y-13743411D01*
X14427932Y-13473158D01*
X14485000Y-13186260D01*
X14485000Y-12893740D01*
X14427932Y-12606842D01*
X14315990Y-12336589D01*
X14153475Y-12093368D01*
X14021620Y-11961513D01*
X14094180Y-11939502D01*
X14204494Y-11880537D01*
X14301185Y-11801185D01*
X14380537Y-11704494D01*
X14439502Y-11594180D01*
X14475812Y-11474482D01*
X14488072Y-11350000D01*
X14488072Y-11235000D01*
X17320747Y-11235000D01*
X17397038Y-11327962D01*
X17531614Y-11438405D01*
X17685150Y-11520472D01*
X17740000Y-11537111D01*
X17740001Y-14125197D01*
X8688695Y-23176504D01*
X8602962Y-23072038D01*
X8596406Y-23066658D01*
X8676185Y-23001185D01*
X8755537Y-22904494D01*
X8814502Y-22794180D01*
X8850812Y-22674482D01*
X8863072Y-22550000D01*
X8860000Y-22335750D01*
X8701250Y-22177000D01*
X7627000Y-22177000D01*
X7627000Y-22197000D01*
X7373000Y-22197000D01*
X7373000Y-22177000D01*
X6298750Y-22177000D01*
X6140000Y-22335750D01*
X6136928Y-22550000D01*
X6149188Y-22674482D01*
X6185498Y-22794180D01*
X6244463Y-22904494D01*
X6323815Y-23001185D01*
X6403594Y-23066658D01*
X6397038Y-23072038D01*
X6286595Y-23206614D01*
X6204528Y-23360150D01*
X6153992Y-23526746D01*
X6136928Y-23700000D01*
X6136928Y-24200000D01*
X6153992Y-24373254D01*
X6204528Y-24539850D01*
X6286595Y-24693386D01*
X6397038Y-24827962D01*
X6531614Y-24938405D01*
X6685150Y-25020472D01*
X6770000Y-25046211D01*
X6770000Y-25501928D01*
X6680000Y-25501928D01*
X6555518Y-25514188D01*
X6435820Y-25550498D01*
X6325506Y-25609463D01*
X6228815Y-25688815D01*
X6149463Y-25785506D01*
X6090498Y-25895820D01*
X6054188Y-26015518D01*
X6041928Y-26140000D01*
X6041928Y-33290000D01*
X5710000Y-33290000D01*
X5710000Y-25034876D01*
X5713435Y-25000000D01*
X5699727Y-24860816D01*
X5659128Y-24726980D01*
X5593200Y-24603637D01*
X5504475Y-24495525D01*
X5396363Y-24406800D01*
X5273020Y-24340872D01*
X5139184Y-24300273D01*
X5034877Y-24290000D01*
X5000000Y-24286565D01*
X4965123Y-24290000D01*
X710000Y-24290000D01*
X710000Y-21550000D01*
X6136928Y-21550000D01*
X6140000Y-21764250D01*
X6298750Y-21923000D01*
X7373000Y-21923000D01*
X7373000Y-21073750D01*
X7627000Y-21073750D01*
X7627000Y-21923000D01*
X8701250Y-21923000D01*
X8860000Y-21764250D01*
X8863072Y-21550000D01*
X8850812Y-21425518D01*
X8814502Y-21305820D01*
X8755537Y-21195506D01*
X8676185Y-21098815D01*
X8579494Y-21019463D01*
X8469180Y-20960498D01*
X8349482Y-20924188D01*
X8225000Y-20911928D01*
X7785750Y-20915000D01*
X7627000Y-21073750D01*
X7373000Y-21073750D01*
X7214250Y-20915000D01*
X6775000Y-20911928D01*
X6650518Y-20924188D01*
X6530820Y-20960498D01*
X6420506Y-21019463D01*
X6323815Y-21098815D01*
X6244463Y-21195506D01*
X6185498Y-21305820D01*
X6149188Y-21425518D01*
X6136928Y-21550000D01*
X710000Y-21550000D01*
X710000Y-8050000D01*
X17136928Y-8050000D01*
X17140000Y-8264250D01*
X17298750Y-8423000D01*
X18373000Y-8423000D01*
X18373000Y-7573750D01*
X18627000Y-7573750D01*
X18627000Y-8423000D01*
X19701250Y-8423000D01*
X19860000Y-8264250D01*
X19863072Y-8050000D01*
X19850812Y-7925518D01*
X19814502Y-7805820D01*
X19755537Y-7695506D01*
X19676185Y-7598815D01*
X19579494Y-7519463D01*
X19469180Y-7460498D01*
X19349482Y-7424188D01*
X19225000Y-7411928D01*
X18785750Y-7415000D01*
X18627000Y-7573750D01*
X18373000Y-7573750D01*
X18214250Y-7415000D01*
X17775000Y-7411928D01*
X17650518Y-7424188D01*
X17530820Y-7460498D01*
X17420506Y-7519463D01*
X17323815Y-7598815D01*
X17244463Y-7695506D01*
X17185498Y-7805820D01*
X17149188Y-7925518D01*
X17136928Y-8050000D01*
X710000Y-8050000D01*
X710000Y-710000D01*
X50790001Y-710000D01*
X50790000Y-22705908D01*
G37*
G04 #@! TD.AperFunction*
M02*
